<svg t="1698396463370" class="icon" viewBox="0 0 1024 1024" version="1.1" xmlns="http://www.w3.org/2000/svg" p-id="27779" width="24" height="24"><path d="M495.3 849.5c-82.2 0-159.4-29.6-217.6-83.3-58.4-53.9-90.5-125.7-90.5-202 0-61.3 20.6-119.6 59.7-168.8 36.5-46 86.1-80.3 143.6-99.6-14.8-112.5-14.5-116.6-14.4-118.2 0.3-4.2 3-7.7 7-8.8 7.4-2.2 12 3.7 20.4 14.4 5.5 7.1 12.5 16.5 20 26.5 8.7 11.7 18.2 24.4 25.4 33.5l25.4-112.5c1.3-5.8 6.2-9.9 12-10.1 5.9-0.1 10.9 3.6 12.6 9.3l31.5 108.5 34.9-66c2.7-5.1 8.2-7.7 13.7-6.6 5.6 1.2 9.7 5.9 10.2 11.8l9.3 117.7c58.3 19.1 108.4 53.6 145.3 100.1 39.1 49.2 59.8 107.6 59.8 168.9 0 19.2-2.1 38.3-6.1 56.9-1.1 5.1-6.2 8.4-11.3 7.3-5.1-1.1-8.4-6.2-7.3-11.3 3.8-17.3 5.7-35.1 5.7-52.9 0-57-19.2-111.3-55.6-157.1-35.8-45.1-84.9-78.1-142.2-95.7l-6.2-1.9-8.6-109-32 60.6c-2.5 4.6-7.3 7.3-12.5 6.8s-9.4-4.2-10.9-9.3l-29-100-22.7 100.9c-1.1 4.7-4.5 8.4-9.1 9.7-4.4 1.2-9.2-0.1-12.4-3.5-7.6-7.9-21.5-26.7-34.9-44.8-3.1-4.1-6.5-8.7-9.8-13.2 2.7 21.7 6.8 54.2 12 93.4l1 8-7.7 2.4c-57.1 17.6-106.2 50.7-142 95.7-36.3 45.8-55.6 100.1-55.6 157 0 71 30 137.8 84.4 188.1 54.6 50.5 127.3 78.3 204.7 78.3 107.3 0 205.2-54.3 255.5-141.7 2.6-4.5 8.4-6.1 13-3.5 4.5 2.6 6.1 8.4 3.5 13-53.9 93.1-158.1 151-272.2 151zM582 181.1c0 0.1 0 0.1 0 0z" fill="#515151" p-id="27780"></path><path d="M283.5 637c-3 0-6-1.4-7.8-4.1-26-37.9-29.9-82-11.1-127.3 13.9-33.5 35.2-55.8 36.1-56.7 3.6-3.8 9.7-3.9 13.4-0.2 3.8 3.6 3.9 9.7 0.2 13.4-0.3 0.3-20 21.1-32.4 51.3-16.2 39.4-13 76 9.4 108.7 3 4.3 1.9 10.2-2.5 13.2-1.6 1.2-3.4 1.7-5.3 1.7z" fill="#515151" p-id="27781"></path><path d="M326.5 412.5m-10 0a10 10 0 1 0 20 0 10 10 0 1 0-20 0Z" fill="#515151" p-id="27782"></path></svg>