<svg t="1698396628909" class="icon" viewBox="0 0 1024 1024" version="1.1" xmlns="http://www.w3.org/2000/svg" p-id="30322" width="24" height="24"><path d="M731.456 975.168H292.544V95.488C292.544 41.92 335.424 0 390.08 0h243.84c54.656 0 97.472 41.92 97.472 95.488v879.68z m-390.144-48.704h341.312V95.488c0-26.24-21.44-46.72-48.704-46.72h-243.84c-27.328 0-48.768 20.544-48.768 46.72v830.976z" fill="#515151" p-id="30323"></path><path d="M341.312 975.168H97.536c-53.76 0-97.536-43.712-97.536-97.472v-512c0-53.76 43.776-97.536 97.536-97.536h243.776v707.008zM97.536 316.928a48.832 48.832 0 0 0-48.768 48.768v512c0 26.88 21.888 48.768 48.768 48.768h195.008V316.928H97.536zM926.528 975.168h-243.904V414.464h243.904C980.16 414.464 1024 458.24 1024 512v365.696c0 53.76-43.84 97.472-97.472 97.472z m-195.072-48.704h195.072c26.88 0 48.704-21.888 48.704-48.768V512a48.768 48.768 0 0 0-48.704-48.768h-195.072v463.232z" fill="#515151" p-id="30324"></path></svg>